<svg width="10" height="10" viewBox="0 0 10 10" fill="none" xmlns="http://www.w3.org/2000/svg">
<path d="M0.571429 10C0.4 10 0.285714 9.94286 0.171429 9.82857C-0.0571429 9.6 -0.0571429 9.25714 0.171429 9.02857L9.02857 0.171429C9.25714 -0.0571429 9.6 -0.0571429 9.82857 0.171429C10.0571 0.4 10.0571 0.742857 9.82857 0.971429L0.971429 9.82857C0.857143 9.94286 0.742857 10 0.571429 10Z" fill="#989898"/>
<path d="M9.42857 10C9.25714 10 9.14286 9.94286 9.02857 9.82857L0.171429 0.971429C-0.0571429 0.742857 -0.0571429 0.4 0.171429 0.171429C0.4 -0.0571429 0.742857 -0.0571429 0.971429 0.171429L9.82857 9.02857C10.0571 9.25714 10.0571 9.6 9.82857 9.82857C9.71429 9.94286 9.54286 10 9.42857 10Z" fill="#989898"/>
</svg>
